<svg xmlns="http://www.w3.org/2000/svg" width="16" height="15" fill="none"><path fill="#4caf50" fill-rule="evenodd" d="M9.904 0A6.095 6.095 0 0 1 16 6.096a6.1 6.1 0 0 1-5.38 6.056A5.526 5.526 0 0 0 8.77 1.422 5.52 5.52 0 0 0 4.287 3.72 6.1 6.1 0 0 1 9.9 0" clip-rule="evenodd"/><path fill="#4caf50" d="M1.564 12.462c.296-1.15.775-3.97 1.46-6.377C3.77 3.46 5.074.985 7.747.02 1.05 1.036 1.326 8.628.013 13.717a.46.46 0 0 0 .143.45.47.47 0 0 0 .319.127c2.5-.035 5.005.084 7.501.006 1.817-.055 3.64-.479 5.127-1.57 1.37-1.005 2.215-2.512 2.659-4.129a6.47 6.47 0 0 1-1.989 2.712c-1.143.917-3.829 1.44-5.257 1.562-1.135.119-2.79.18-5.167.07-.584-.015-1.074-.03-1.423-.024a.37.37 0 0 1-.22-.072c-.012-.01-.023-.015-.035-.024q-.013-.013-.035-.04a.398.398 0 0 1-.084-.2.4.4 0 0 1 .009-.117"/></svg>
